<?xml version="1.0" encoding="iso-8859-1"?>
<!-- Generator: Adobe Illustrator 24.0.1, SVG Export Plug-In . SVG Version: 6.00 Build 0)  -->
<svg version="1.1" id="Camada_1" xmlns="http://www.w3.org/2000/svg" xmlns:xlink="http://www.w3.org/1999/xlink" x="0px" y="0px"
	 viewBox="0 0 472.81 107.84" style="enable-background:new 0 0 472.81 107.84;" xml:space="preserve">
<title>logo-mh</title>
<g>
	<g id="Camada_1_1_">
		<g style="opacity:0.6;">
			<path d="M125.38,75.07l-0.13-28.13l-11.62,22.93h-5.68L96.39,47.73v27.34H84.57v-53H95.1l15.88,30.63l15.5-30.63h10.53l0.12,53
				H125.38z"/>
			<path d="M189.18,22.07v53h-12.79V54.4h-17.43v20.67h-12.79v-53h12.79v19.9h17.43v-19.9H189.18z"/>
			<path d="M125.38,75.07l-0.13-28.13l-11.62,22.93h-5.68L96.39,47.73v27.34H84.57v-53H95.1l15.88,30.63l15.5-30.63h10.53l0.12,53
				H125.38z"/>
			<path d="M189.18,22.07v53h-12.79V54.4h-17.43v20.67h-12.79v-53h12.79v19.9h17.43v-19.9H189.18z"/>
		</g>
		<path d="M126.38,74.07l-0.13-28.13l-11.62,22.93h-5.68L97.39,46.73v27.34H85.57v-53H96.1l15.88,30.63l15.5-30.63h10.53l0.12,53
			H126.38z"/>
		<path d="M190.18,21.07v53h-12.79V53.4h-17.43v20.67h-12.79v-53h12.79v19.9h17.43v-19.9H190.18z"/>
		<defs>
			<filter id="Adobe_OpacityMaskFilter" filterUnits="userSpaceOnUse" x="85.57" y="21.07" width="104.61" height="53">
				<feColorMatrix  type="matrix" values="1 0 0 0 0  0 1 0 0 0  0 0 1 0 0  0 0 0 1 0"/>
			</filter>
		</defs>
		<mask maskUnits="userSpaceOnUse" x="85.57" y="21.07" width="104.61" height="53" id="mask_1_">
			<g style="filter:url(#Adobe_OpacityMaskFilter);">
				<g transform="translate(-10.68 -7.93)">
					
						<image style="overflow:visible;enable-background:new    ;" width="109" height="59" xlink:href="479F615F.png"  transform="matrix(1 0 0 1 94 26)">
					</image>
				</g>
			</g>
		</mask>
		<g style="mask:url(#mask_1_);">
			<g style="opacity:0.57;">
				<path style="fill:#FFFFFF;" d="M126.38,74.07l-0.13-28.13l-11.62,22.93h-5.68L97.39,46.73v27.34H85.57v-53H96.1l15.88,30.63
					l15.5-30.63h10.53l0.12,53H126.38z"/>
				<path style="fill:#FFFFFF;" d="M190.18,21.07v53h-12.79V53.4h-17.43v20.67h-12.79v-53h12.79v19.9h17.43v-19.9H190.18z"/>
			</g>
		</g>
		<path d="M78.83,91.37l0.66-1.65c0.951,0.797,2.149,1.239,3.39,1.25c1.6,0,2.27-0.63,2.27-1.48c0-2.47-6.1-0.85-6.1-5.1
			c0-1.84,1.32-3.41,4.14-3.41c1.212-0.019,2.4,0.33,3.41,1L86,83.63c-0.838-0.564-1.82-0.876-2.83-0.9c-1.58,0-2.23,0.69-2.23,1.56
			c0,2.43,6.09,0.85,6.09,5c0,1.83-1.34,3.4-4.15,3.4C81.416,92.742,79.982,92.275,78.83,91.37z"/>
		<path d="M88.1,88.21c0.166-2.303,2.167-4.035,4.469-3.869c2.303,0.166,4.035,2.167,3.869,4.469
			c-0.158,2.19-1.983,3.885-4.178,3.88c-2.297,0.007-4.166-1.85-4.172-4.148C88.087,88.431,88.091,88.321,88.1,88.21z M94.6,88.21
			c0.189-1.284-0.699-2.478-1.983-2.667c-1.284-0.189-2.478,0.699-2.667,1.983c-0.033,0.227-0.033,0.457,0,0.684
			c0,1.67,1,2.73,2.31,2.73c1.341-0.039,2.397-1.159,2.358-2.5C94.615,88.363,94.61,88.286,94.6,88.21z"/>
		<path d="M98.21,80.46h1.83v12.11h-1.83V80.46z"/>
		<path d="M110.02,83.86v8.71h-1.7v-1.11c-0.593,0.792-1.531,1.25-2.52,1.23c-2,0-3.38-1.23-3.38-3.86v-5h1.84v4.7
			c0,1.58,0.67,2.33,1.83,2.33s2.14-0.88,2.14-2.63v-4.4L110.02,83.86z"/>
		<path d="M117.96,89.73l1.41,0.92c-0.588,1.246-1.853,2.029-3.23,2l-0.16,0.68c0.732,0.032,1.303,0.647,1.28,1.38
			c0,0.94-0.8,1.55-2,1.55c-0.474,0.013-0.942-0.108-1.35-0.35l0.34-1c0.303,0.176,0.649,0.266,1,0.26c0.54,0,0.77-0.23,0.77-0.59
			s-0.22-0.54-0.77-0.54h-0.46l0.37-1.51c-2.407-0.62-3.855-3.074-3.235-5.48c0.488-1.894,2.143-3.255,4.095-3.37
			c1.421-0.084,2.749,0.709,3.35,2l-1.41,0.92c-0.364-0.744-1.122-1.214-1.95-1.21c-1.505,0.204-2.559,1.59-2.355,3.095
			c0.166,1.225,1.13,2.189,2.355,2.355C116.816,90.863,117.568,90.435,117.96,89.73z"/>
		<path d="M120.19,88.21c0.166-2.303,2.167-4.035,4.469-3.869c2.303,0.166,4.035,2.167,3.869,4.469
			c-0.158,2.19-1.983,3.885-4.178,3.88c-2.298,0.007-4.165-1.85-4.172-4.148C120.177,88.431,120.181,88.321,120.19,88.21z
			 M123.4,81.59c-0.41,0-0.69,0.36-0.72,1h-1c0-1.34,0.65-2.19,1.58-2.19s1.47,1.08,2,1.08s0.69-0.35,0.72-0.93h1
			c0,1.27-0.65,2.13-1.58,2.13S123.93,81.59,123.4,81.59z M126.69,88.21c0.16-1.332-0.79-2.543-2.122-2.703
			c-0.082-0.01-0.165-0.016-0.248-0.017c-1.32,0-2.31,1.06-2.31,2.72s1,2.73,2.31,2.73c1.342-0.023,2.411-1.129,2.388-2.471
			C126.707,88.382,126.701,88.296,126.69,88.21z"/>
		<path d="M137.63,88.87h-6.15c0.175,1.251,1.279,2.159,2.54,2.09c0.827,0.014,1.613-0.355,2.13-1l1,1.26
			c-0.764,0.954-1.94,1.482-3.16,1.42c-2.313,0.077-4.25-1.735-4.328-4.047c-0.005-0.144-0.002-0.289,0.008-0.433
			c0-2.59,1.71-4.45,4-4.45c2.29,0,4,1.78,4,4.5C137.66,88.43,137.64,88.67,137.63,88.87z M131.47,87.51h4.44
			c-0.053-1.183-1.026-2.116-2.21-2.12C132.514,85.399,131.538,86.326,131.47,87.51z"/>
		<path d="M138.52,91.71l0.71-1.55c0.802,0.55,1.748,0.849,2.72,0.86c1.16,0,1.65-0.36,1.65-1c0-1.67-4.84-0.1-4.84-3.58
			c0-1.65,1.33-2.72,3.44-2.72c1.03-0.02,2.046,0.239,2.94,0.75l-0.71,1.6c-0.664-0.438-1.445-0.665-2.24-0.65
			c-1.12,0-1.64,0.4-1.64,1c0,1.76,4.83,0.19,4.83,3.6c0,1.64-1.34,2.7-3.54,2.7C140.656,92.729,139.498,92.377,138.52,91.71z"/>
		<path d="M158.32,88.87h-6.14c0.17,1.249,1.271,2.159,2.53,2.09c0.827,0.014,1.613-0.355,2.13-1l1,1.26
			c-0.759,0.955-1.932,1.484-3.15,1.42c-2.313,0.083-4.255-1.724-4.338-4.037c-0.005-0.148-0.003-0.296,0.008-0.443
			c-0.178-2.274,1.522-4.261,3.796-4.439c0.068-0.005,0.136-0.009,0.204-0.011c2.29,0,4,1.78,4,4.5
			C158.38,88.43,158.32,88.67,158.32,88.87z M152.16,87.51h4.44c-0.053-1.183-1.026-2.116-2.21-2.12
			c-1.174,0.024-2.132,0.947-2.2,2.12H152.16z"/>
		<path d="M173.23,87.58v5h-1.83v-4.74c0-1.55-0.64-2.3-1.76-2.3s-2,0.88-2,2.61v4.42h-1.83v-4.73c0-1.55-0.64-2.3-1.76-2.3
			s-2,0.88-2,2.61v4.42h-1.83v-8.71h1.74v1.11c0.611-0.795,1.568-1.246,2.57-1.21c1.084-0.059,2.108,0.503,2.64,1.45
			c0.678-0.936,1.774-1.479,2.93-1.45C171.91,83.76,173.23,84.95,173.23,87.58z"/>
		<path d="M186.52,92.57l-2.09-3.34h-2.72v3.33h-1.9V81.15h4.22c2.7,0,4.37,1.53,4.37,4.06c0.103,1.542-0.768,2.984-2.18,3.61
			l2.36,3.75H186.52z M183.94,82.94h-2.23v4.56h2.23c1.67,0,2.54-0.85,2.54-2.29S185.61,82.94,183.94,82.94z"/>
		<path d="M197.68,88.87h-6.14c0.175,1.251,1.279,2.159,2.54,2.09c0.824,0.016,1.608-0.354,2.12-1l1,1.26
			c-0.759,0.955-1.932,1.484-3.15,1.42c-2.313,0.077-4.25-1.735-4.328-4.047c-0.005-0.144-0.002-0.289,0.008-0.433
			c0-2.59,1.71-4.45,4-4.45c2.29,0,4,1.78,4,4.5C197.71,88.43,197.7,88.67,197.68,88.87z M191.52,87.51h4.45
			c-0.059-1.185-1.034-2.116-2.22-2.12C192.566,85.403,191.593,86.328,191.52,87.51z"/>
		<path d="M199.47,80.46h1.85v12.11h-1.84L199.47,80.46z"/>
		<path d="M203.07,88.21c0.166-2.303,2.167-4.035,4.469-3.869c2.303,0.166,4.035,2.167,3.869,4.469
			c-0.158,2.19-1.983,3.885-4.178,3.88c-2.298,0.007-4.165-1.85-4.172-4.148C203.057,88.431,203.061,88.321,203.07,88.21z
			 M209.56,88.21c0.189-1.284-0.699-2.478-1.983-2.667s-2.478,0.699-2.667,1.983c-0.033,0.227-0.033,0.457,0,0.684
			c0,1.67,1,2.73,2.32,2.73S209.56,89.88,209.56,88.21z M207.97,80.43h2.15l-2.55,2.23h-1.58L207.97,80.43z"/>
		<path d="M220.94,83.86v7.39c0,3.17-1.48,4.61-4.22,4.61c-1.379,0.054-2.731-0.39-3.81-1.25l0.82-1.53
			c0.813,0.668,1.838,1.023,2.89,1c1.73,0,2.49-0.88,2.49-2.64v-0.37c-0.647,0.772-1.614,1.2-2.62,1.16
			c-2.325-0.16-4.08-2.175-3.92-4.5c0.145-2.102,1.818-3.775,3.92-3.92c1.053-0.049,2.064,0.417,2.71,1.25v-1.2H220.94z
			 M219.14,87.95c0.085-1.317-0.913-2.454-2.23-2.539c-1.317-0.085-2.454,0.913-2.539,2.231c-0.007,0.103-0.007,0.206,0,0.309
			c-0.085,1.317,0.913,2.454,2.23,2.539c1.317,0.085,2.454-0.913,2.539-2.231C219.147,88.156,219.147,88.053,219.14,87.95z"/>
		<path d="M223.1,81.19c-0.022-0.651,0.487-1.198,1.139-1.22c0.027-0.001,0.054-0.001,0.081,0c0.635-0.017,1.163,0.484,1.18,1.119
			c0.001,0.02,0.001,0.041,0,0.061c0.039,0.662-0.466,1.229-1.128,1.268c-0.017,0.001-0.035,0.002-0.052,0.002
			c-0.651,0.023-1.198-0.487-1.22-1.138C223.099,81.251,223.099,81.221,223.1,81.19z M223.35,83.86h1.83v8.71h-1.86L223.35,83.86z"
			/>
		<path d="M226.94,88.21c0.16-2.309,2.161-4.05,4.47-3.89c2.309,0.16,4.05,2.161,3.89,4.47c-0.153,2.2-1.985,3.905-4.19,3.9
			c-2.297,0.012-4.17-1.84-4.182-4.138C226.927,88.438,226.931,88.324,226.94,88.21z M233.44,88.21
			c0.189-1.284-0.699-2.478-1.983-2.667s-2.478,0.699-2.667,1.983c-0.033,0.227-0.033,0.457,0,0.684c0,1.67,1,2.73,2.32,2.73
			c1.341-0.045,2.392-1.169,2.347-2.51C233.455,88.357,233.449,88.283,233.44,88.21z"/>
		<path d="M248.76,80.46v12.11h-1.75v-1.12c-0.611,0.814-1.583,1.277-2.6,1.24c-2.27,0-4-1.77-4-4.48s1.69-4.45,4-4.45
			c0.981-0.046,1.922,0.391,2.52,1.17v-4.47H248.76z M246.96,88.21c-0.204-1.287-1.414-2.165-2.701-1.961
			c-1.287,0.204-2.165,1.414-1.961,2.701c0.182,1.147,1.171,1.99,2.332,1.99c1.341-0.045,2.392-1.169,2.347-2.51
			C246.975,88.357,246.969,88.283,246.96,88.21z"/>
		<path d="M258.5,88.87h-6.18c0.175,1.251,1.279,2.159,2.54,2.09c0.824,0.014,1.607-0.355,2.12-1l1,1.26
			c-0.759,0.955-1.932,1.484-3.15,1.42c-2.313,0.077-4.25-1.735-4.328-4.047c-0.005-0.144-0.002-0.289,0.008-0.433
			c0-2.59,1.71-4.45,4-4.45s4,1.78,4,4.5C258.53,88.43,258.52,88.67,258.5,88.87z M252.32,87.51h4.45
			c-0.059-1.185-1.034-2.116-2.22-2.12C253.366,85.403,252.393,86.328,252.32,87.51z"/>
		<path d="M272.66,88.21c0,2.71-1.69,4.48-4,4.48c-0.976,0.024-1.906-0.413-2.51-1.18v4.23h-1.83V83.86h1.75V85
			c0.606-0.815,1.575-1.279,2.59-1.24C270.97,83.76,272.66,85.52,272.66,88.21z M270.79,88.21c0-1.66-1-2.72-2.31-2.72
			c-1.505,0.242-2.529,1.658-2.287,3.163c0.189,1.176,1.111,2.098,2.287,2.287C269.8,90.94,270.79,89.88,270.79,88.21z"/>
		<path d="M273.76,88.21c0.166-2.303,2.167-4.035,4.469-3.869c2.303,0.166,4.035,2.167,3.869,4.469
			c-0.158,2.19-1.983,3.885-4.178,3.88c-2.297,0.007-4.165-1.85-4.172-4.148C273.747,88.431,273.751,88.321,273.76,88.21z
			 M280.25,88.21c0.166-1.326-0.774-2.536-2.1-2.702c-0.076-0.01-0.153-0.015-0.23-0.018c-1.32,0-2.31,1.06-2.31,2.72
			s1,2.73,2.31,2.73S280.25,89.88,280.25,88.21z"/>
		<path d="M291.57,87.58v5h-1.83v-4.74c0-1.55-0.69-2.3-1.86-2.3s-2.19,0.88-2.19,2.63v4.4h-1.83v-8.71h1.75v1.12
			c0.651-0.823,1.662-1.278,2.71-1.22C290.18,83.76,291.57,84.95,291.57,87.58z"/>
		<path d="M298.61,92.07c-0.494,0.4-1.115,0.61-1.75,0.59c-1.72,0-2.7-1-2.7-2.94v-4.2h-1.29v-1.6h1.29v-2h1.83v2h2.1v1.63h-2.1
			v4.15c0,0.85,0.38,1.31,1.09,1.31c0.365,0.002,0.72-0.126,1-0.36L298.61,92.07z"/>
		<path d="M299.22,88.21c0.166-2.303,2.167-4.035,4.469-3.869c2.303,0.166,4.035,2.167,3.869,4.469
			c-0.158,2.19-1.983,3.885-4.178,3.88c-2.297,0.007-4.165-1.85-4.172-4.148C299.207,88.431,299.211,88.321,299.22,88.21z
			 M305.71,88.21c0.166-1.326-0.774-2.536-2.1-2.702c-0.076-0.01-0.153-0.015-0.23-0.018c-1.32,0-2.31,1.06-2.31,2.72
			s1,2.73,2.31,2.73S305.71,89.88,305.71,88.21L305.71,88.21z"/>
		<path d="M320.7,88.87h-6.14c0.17,1.249,1.271,2.159,2.53,2.09c0.827,0.014,1.613-0.355,2.13-1l1,1.26
			c-0.759,0.955-1.932,1.484-3.15,1.42c-2.313,0.077-4.25-1.735-4.328-4.047c-0.005-0.144-0.002-0.289,0.008-0.433
			c0-2.59,1.71-4.45,4-4.45s4,1.78,4,4.5C320.73,88.43,320.72,88.67,320.7,88.87z M314.54,87.51h4.45
			c-0.082-1.229-1.145-2.158-2.374-2.076C315.502,85.509,314.615,86.396,314.54,87.51z"/>
		<path d="M325.98,86.86c0-3.41,2.35-5.88,5.5-5.88c1.579-0.04,3.084,0.668,4.06,1.91l-1.22,1.29
			c-0.655-0.849-1.668-1.345-2.74-1.34c-2.209,0-4,1.791-4,4s1.791,4,4,4c1.07,0.014,2.084-0.475,2.74-1.32l1.23,1.31
			c-0.978,1.245-2.487,1.954-4.07,1.91C328.32,92.74,325.98,90.27,325.98,86.86z"/>
		<path d="M336.26,88.21c0.16-2.309,2.161-4.05,4.47-3.89s4.05,2.161,3.89,4.47c-0.153,2.2-1.985,3.905-4.19,3.9
			c-2.297,0.012-4.17-1.84-4.182-4.138C336.247,88.438,336.251,88.324,336.26,88.21z M342.76,88.21
			c0.189-1.284-0.699-2.478-1.983-2.667c-1.284-0.189-2.478,0.699-2.667,1.983c-0.033,0.227-0.033,0.457,0,0.684
			c0,1.67,1,2.73,2.32,2.73c1.341-0.045,2.392-1.169,2.347-2.51C342.775,88.357,342.769,88.283,342.76,88.21z"/>
		<path d="M354.08,87.58v5h-1.83v-4.74c0-1.55-0.69-2.3-1.86-2.3s-2.19,0.88-2.19,2.63v4.4h-1.83v-8.71h1.74v1.12
			c0.652-0.817,1.656-1.271,2.7-1.22C352.69,83.76,354.08,84.95,354.08,87.58z"/>
		<path d="M361.12,92.07c-0.498,0.399-1.122,0.608-1.76,0.59c-1.71,0-2.7-1-2.7-2.94v-4.2h-1.29v-1.6h1.29v-2h1.84v2h2.09v1.63
			h-2.09v4.15c0,0.85,0.38,1.31,1.08,1.31c0.365-0.001,0.718-0.128,1-0.36L361.12,92.07z"/>
		<path d="M367.16,83.76v1.94c-0.14-0.013-0.28-0.013-0.42,0c-1.39,0-2.27,0.92-2.27,2.7v4.22h-1.84v-8.76h1.75v1.27
			C364.981,84.193,366.051,83.666,367.16,83.76z"/>
		<path d="M368,88.21c0.166-2.303,2.167-4.035,4.469-3.869c2.303,0.166,4.035,2.167,3.869,4.469c-0.157,2.186-1.977,3.88-4.168,3.88
			c-2.297,0.012-4.17-1.84-4.182-4.138C367.987,88.438,367.991,88.324,368,88.21z M374.5,88.21c0.189-1.284-0.699-2.478-1.983-2.667
			c-1.284-0.189-2.478,0.699-2.667,1.983c-0.033,0.227-0.033,0.457,0,0.684c0,1.67,1,2.73,2.32,2.73
			c1.341-0.045,2.392-1.169,2.347-2.51C374.515,88.357,374.509,88.283,374.5,88.21z"/>
		<path d="M378.11,80.46h1.83v12.11h-1.83V80.46z"/>
		<path d="M389.68,88.87h-6.15c0.175,1.251,1.279,2.159,2.54,2.09c0.827,0.014,1.613-0.355,2.13-1l1,1.26
			c-0.762,0.951-1.933,1.479-3.15,1.42c-2.313,0.083-4.255-1.724-4.338-4.037c-0.005-0.148-0.003-0.296,0.008-0.443
			c0-2.59,1.71-4.45,4.05-4.45s4,1.78,4,4.5C389.71,88.43,389.69,88.67,389.68,88.87z M383.52,87.51h4.44
			c-0.053-1.183-1.026-2.116-2.21-2.12C384.564,85.399,383.589,86.326,383.52,87.51L383.52,87.51z"/>
		<path d="M403.18,80.46v12.11h-1.76v-1.12c-0.606,0.815-1.575,1.279-2.59,1.24c-2.27,0-4-1.77-4-4.48s1.69-4.45,4-4.45
			c0.97-0.036,1.898,0.4,2.49,1.17v-4.47H403.18z M401.38,88.21c-0.204-1.287-1.414-2.165-2.701-1.961
			c-1.287,0.204-2.165,1.414-1.961,2.701c0.182,1.147,1.171,1.99,2.332,1.99c1.341-0.045,2.392-1.169,2.347-2.51
			C401.395,88.357,401.389,88.283,401.38,88.21z"/>
		<path d="M412.92,88.87h-6.14c0.17,1.253,1.277,2.164,2.54,2.09c0.827,0.014,1.613-0.355,2.13-1l1,1.26
			c-0.759,0.955-1.932,1.484-3.15,1.42c-2.313,0.077-4.25-1.735-4.328-4.047c-0.005-0.144-0.002-0.289,0.008-0.433
			c0-2.59,1.71-4.45,4-4.45s4,1.78,4,4.5C412.95,88.43,412.94,88.67,412.92,88.87z M406.76,87.51h4.45
			c-0.082-1.229-1.145-2.158-2.374-2.076C407.722,85.509,406.835,86.396,406.76,87.51z"/>
		<path d="M425.32,87.46v5.11h-1.73v-1.06c-0.542,0.814-1.486,1.267-2.46,1.18c-1.443,0.166-2.747-0.87-2.913-2.313
			c-0.012-0.102-0.017-0.205-0.017-0.307c0-1.46,0.88-2.6,3.26-2.6h2v-0.13c0.108-0.944-0.57-1.796-1.514-1.904
			c-0.162-0.018-0.325-0.014-0.486,0.014c-0.868-0.009-1.71,0.296-2.37,0.86l-0.72-1.49c0.945-0.731,2.116-1.109,3.31-1.07
			C424.01,83.76,425.32,84.95,425.32,87.46z M423.49,89.85v-1h-1.89c-1.25,0-1.58,0.53-1.58,1.16s0.55,1.21,1.49,1.21
			c0.888,0.032,1.691-0.526,1.97-1.37H423.49z"/>
		<path d="M427.09,88.21c-0.149-2.304,1.597-4.292,3.901-4.442c0.11-0.007,0.219-0.01,0.329-0.008c1.418-0.082,2.743,0.711,3.34,2
			l-1.41,0.92c-0.367-0.73-1.113-1.19-1.93-1.19c-1.505,0.204-2.559,1.59-2.355,3.095c0.166,1.225,1.13,2.189,2.355,2.355
			c0.828,0.004,1.586-0.466,1.95-1.21l1.41,0.92c-0.608,1.28-1.925,2.068-3.34,2c-2.314,0.037-4.22-1.808-4.257-4.122
			C427.081,88.422,427.084,88.316,427.09,88.21z"/>
		<path d="M443.47,88.87h-6.15c0.17,1.249,1.271,2.159,2.53,2.09c0.827,0.014,1.613-0.355,2.13-1l1,1.26
			c-0.759,0.955-1.932,1.484-3.15,1.42c-2.318,0.077-4.26-1.74-4.337-4.058c-0.005-0.141-0.002-0.281,0.007-0.422
			c-0.177-2.274,1.523-4.261,3.797-4.438c0.084-0.007,0.169-0.011,0.253-0.012c2.29,0,4,1.78,4,4.5
			C443.5,88.43,443.49,88.67,443.47,88.87z M437.32,87.51h4.45c-0.082-1.229-1.145-2.158-2.374-2.076
			C438.282,85.509,437.395,86.396,437.32,87.51z"/>
		<path d="M444.37,91.71l0.7-1.55c0.805,0.55,1.755,0.849,2.73,0.86c1.16,0,1.64-0.36,1.64-1c0-1.67-4.84-0.1-4.84-3.58
			c0-1.65,1.34-2.72,3.45-2.72c1.027-0.021,2.04,0.238,2.93,0.75l-0.66,1.6c-0.668-0.436-1.452-0.663-2.25-0.65
			c-1.11,0-1.64,0.4-1.64,1c0,1.76,4.84,0.19,4.84,3.6c0,1.64-1.35,2.7-3.55,2.7C446.526,92.738,445.355,92.385,444.37,91.71z"/>
		<path d="M451.92,91.71l0.7-1.55c0.791,0.562,1.73,0.878,2.7,0.91c1.16,0,1.64-0.36,1.64-1c0-1.67-4.84-0.1-4.84-3.58
			c0-1.65,1.34-2.72,3.45-2.72c1.027-0.021,2.04,0.238,2.93,0.75l-0.7,1.55c-0.666-0.434-1.445-0.661-2.24-0.65
			c-1.12,0-1.65,0.4-1.65,1c0,1.76,4.84,0.19,4.84,3.6c0,1.64-1.35,2.7-3.55,2.7C454.03,92.723,452.886,92.371,451.92,91.71z"/>
		<path d="M459.72,88.21c0.16-2.309,2.161-4.05,4.47-3.89s4.05,2.161,3.89,4.47c-0.153,2.2-1.985,3.905-4.19,3.9
			c-2.297,0.012-4.17-1.84-4.182-4.138C459.707,88.438,459.711,88.324,459.72,88.21z M466.22,88.21
			c0.189-1.284-0.699-2.478-1.983-2.667c-1.284-0.189-2.478,0.699-2.667,1.983c-0.033,0.227-0.033,0.457,0,0.684
			c0,1.67,1,2.73,2.32,2.73c1.341-0.045,2.392-1.169,2.347-2.51C466.235,88.357,466.229,88.283,466.22,88.21z"/>
		<g style="opacity:0.6;">
			<path d="M45.55,74.71H28.93L1,36.2h17.32C27.393,49.04,36.47,61.877,45.55,74.71z"/>
			<path d="M44.55,74.71H27.93L0,36.2h17.32C26.393,49.04,35.47,61.877,44.55,74.71z"/>
			<path d="M1.32,31.14h16.63l21.29-29.7c-3.114-0.63-6.329-0.576-9.42,0.16c-5.79,1.38-9.8,4.81-12.08,6.8
				c-2.973,2.707-5.623,5.747-7.9,9.06C6.63,21.779,3.78,26.354,1.32,31.14z"/>
			<path d="M0.32,31.14h16.63l21.29-29.7c-3.114-0.63-6.329-0.576-9.42,0.16c-5.79,1.38-9.8,4.81-12.08,6.8
				c-2.973,2.707-5.623,5.747-7.9,9.06C5.63,21.779,2.78,26.354,0.32,31.14z"/>
		</g>
		<g style="opacity:0.75;">
			<path style="fill:#CCCCCC;" d="M46.55,73.71H29.93L2,35.2h17.32C28.393,48.04,37.47,60.877,46.55,73.71z"/>
		</g>
		<path style="fill:#F3BD00;" d="M45.55,73.71H28.93L1,35.2h17.32C27.393,48.04,36.47,60.877,45.55,73.71z"/>
		<g style="opacity:0.75;">
			<path style="fill:#CCCCCC;" d="M2.32,30.14h16.63l21.29-29.7c-3.114-0.63-6.329-0.576-9.42,0.16c-5.79,1.38-9.8,4.81-12.08,6.8
				c-2.973,2.707-5.623,5.747-7.9,9.06C7.63,20.779,4.78,25.354,2.32,30.14z"/>
		</g>
		<path d="M1.32,30.14h16.63l21.29-29.7c-3.114-0.63-6.329-0.576-9.42,0.16c-5.79,1.38-9.8,4.81-12.08,6.8
			c-2.973,2.707-5.623,5.747-7.9,9.06C6.63,20.779,3.78,25.354,1.32,30.14z"/>
		<g style="opacity:0.6;">
			<path d="M28.38,34.13H45l27.92,38.53H55.63L28.38,34.13z"/>
			<path d="M29.38,34.13H46l27.92,38.53H56.63L29.38,34.13z"/>
			<path d="M72.59,77.73H55.96L34.67,107.4c3.113,0.64,6.329,0.589,9.42-0.15c5.79-1.38,9.8-4.8,12.08-6.79
				c2.97-2.709,5.621-5.749,7.9-9.06C67.277,87.082,70.126,82.511,72.59,77.73z"/>
			<path d="M73.59,77.73H56.96L35.67,107.4c3.113,0.64,6.329,0.589,9.42-0.15c5.79-1.38,9.8-4.8,12.08-6.79
				c2.97-2.709,5.621-5.749,7.9-9.06C68.277,87.082,71.126,82.511,73.59,77.73z"/>
		</g>
		<g style="opacity:0.75;">
			<path style="fill:#CCCCCC;" d="M29.38,33.13H46l27.92,38.53H56.63L29.38,33.13z"/>
		</g>
		<path style="fill:#F3BD00;" d="M30.38,33.13H47l27.92,38.53H57.63L30.38,33.13z"/>
		<g style="opacity:0.75;">
			<path style="fill:#CCCCCC;" d="M73.59,76.73H56.96L35.67,106.4c3.113,0.64,6.329,0.589,9.42-0.15c5.79-1.38,9.8-4.8,12.08-6.79
				c2.97-2.709,5.621-5.749,7.9-9.06C68.277,86.082,71.126,81.511,73.59,76.73z"/>
		</g>
		<path d="M74.59,76.73H57.96L36.67,106.4c3.113,0.64,6.329,0.589,9.42-0.15c5.79-1.38,9.8-4.8,12.08-6.79
			c2.97-2.709,5.621-5.749,7.9-9.06C69.277,86.082,72.126,81.511,74.59,76.73z"/>
		<g style="opacity:0.6;">
			<path d="M229.48,64.17h-19.16l-3.55,10.31h-13l20-53.07h12.55l20,53.07h-13.3L229.48,64.17z M225.73,53.07l-5.81-17l-5.81,17
				H225.73z"/>
			<path d="M246.97,47.94c0-16.14,10.53-27.59,24.86-27.59c8.33,0,15.05,3.56,19.44,10l-8.14,8.64c-2.84-4-6.32-6.22-10.65-6.22
				c-7.43,0-12.59,6.07-12.59,15.16s5.16,15.14,12.59,15.14c4.33,0,7.81-2.2,10.65-6.22l8.19,8.68c-4.39,6.44-11.11,10-19.44,10
				C257.5,75.54,246.97,64.07,246.97,47.94z"/>
			<path d="M333.24,62.88v11.6h-36.29V21.41h35.45v11.6h-22.79v9h20.08v11.17h-20.08v9.7H333.24z"/>
			<path d="M337.18,69.7l4.19-11.07c4.305,3.281,9.539,5.112,14.95,5.23c5.29,0,7.36-1.74,7.36-4.32c0-8.41-25.7-2.27-25.7-22
				c0-9.48,6.59-17.21,20-17.21c5.8-0.082,11.499,1.526,16.4,4.63l-3.94,11.14c-3.716-2.5-8.063-3.897-12.54-4.03
				c-5.36,0-7.29,2.12-7.29,4.77c0,8.11,25.63,2.05,25.63,21.61c0,9.24-6.58,17.13-20,17.13C348.8,75.54,341.44,73.19,337.18,69.7z"
				/>
			<path d="M378.95,69.7l4.2-11.07c4.295,3.278,9.519,5.109,14.92,5.23c5.29,0,7.36-1.74,7.36-4.32c0-8.41-25.7-2.27-25.7-22
				c0-9.48,6.58-17.21,20-17.21c5.804-0.084,11.506,1.525,16.41,4.63L412.2,36.1c-3.711-2.495-8.051-3.892-12.52-4.03
				c-5.36,0-7.3,2.12-7.3,4.77c0,8.11,25.64,2.05,25.64,21.61c0,9.24-6.59,17.13-20,17.13C390.57,75.54,383.21,73.19,378.95,69.7z"
				/>
			<path d="M421.57,47.94c0-15.91,10.65-27.59,25.12-27.59s25.12,11.72,25.12,27.59s-10.66,27.6-25.12,27.6
				S421.57,63.86,421.57,47.94z M458.89,47.94c0-9.17-5.36-15.16-12.2-15.16s-12.21,6-12.21,15.16s5.36,15.13,12.21,15.13
				S458.89,57.12,458.89,47.94z"/>
			<path d="M229.48,64.17h-19.16l-3.55,10.31h-13l20-53.07h12.55l20,53.07h-13.3L229.48,64.17z M225.73,53.07l-5.81-17l-5.81,17
				H225.73z"/>
			<path d="M246.97,47.94c0-16.14,10.53-27.59,24.86-27.59c8.33,0,15.05,3.56,19.44,10l-8.14,8.64c-2.84-4-6.32-6.22-10.65-6.22
				c-7.43,0-12.59,6.07-12.59,15.16s5.16,15.14,12.59,15.14c4.33,0,7.81-2.2,10.65-6.22l8.19,8.68c-4.39,6.44-11.11,10-19.44,10
				C257.5,75.54,246.97,64.07,246.97,47.94z"/>
			<path d="M333.24,62.88v11.6h-36.29V21.41h35.45v11.6h-22.79v9h20.08v11.17h-20.08v9.7H333.24z"/>
			<path d="M337.18,69.7l4.19-11.07c4.305,3.281,9.539,5.112,14.95,5.23c5.29,0,7.36-1.74,7.36-4.32c0-8.41-25.7-2.27-25.7-22
				c0-9.48,6.59-17.21,20-17.21c5.8-0.082,11.499,1.526,16.4,4.63l-3.94,11.14c-3.716-2.5-8.063-3.897-12.54-4.03
				c-5.36,0-7.29,2.12-7.29,4.77c0,8.11,25.63,2.05,25.63,21.61c0,9.24-6.58,17.13-20,17.13C348.8,75.54,341.44,73.19,337.18,69.7z"
				/>
			<path d="M378.95,69.7l4.2-11.07c4.295,3.278,9.519,5.109,14.92,5.23c5.29,0,7.36-1.74,7.36-4.32c0-8.41-25.7-2.27-25.7-22
				c0-9.48,6.58-17.21,20-17.21c5.804-0.084,11.506,1.525,16.41,4.63L412.2,36.1c-3.711-2.495-8.051-3.892-12.52-4.03
				c-5.36,0-7.3,2.12-7.3,4.77c0,8.11,25.64,2.05,25.64,21.61c0,9.24-6.59,17.13-20,17.13C390.57,75.54,383.21,73.19,378.95,69.7z"
				/>
			<path d="M421.57,47.94c0-15.91,10.65-27.59,25.12-27.59s25.12,11.72,25.12,27.59s-10.66,27.6-25.12,27.6
				S421.57,63.86,421.57,47.94z M458.89,47.94c0-9.17-5.36-15.16-12.2-15.16s-12.21,6-12.21,15.16s5.36,15.13,12.21,15.13
				S458.89,57.12,458.89,47.94z"/>
		</g>
		<path style="fill:#FFCC00;" d="M230.48,63.17h-19.16l-3.55,10.31h-13l20-53.07h12.55l20,53.07h-13.3L230.48,63.17z M226.73,52.07
			l-5.81-17l-5.81,17H226.73z"/>
		<path style="fill:#FFCC00;" d="M247.97,46.94c0-16.14,10.53-27.59,24.86-27.59c8.33,0,15.05,3.56,19.44,10l-8.14,8.64
			c-2.84-4-6.32-6.22-10.65-6.22c-7.43,0-12.59,6.07-12.59,15.16s5.16,15.14,12.59,15.14c4.33,0,7.81-2.2,10.65-6.22l8.19,8.68
			c-4.39,6.44-11.11,10-19.44,10C258.5,74.54,247.97,63.07,247.97,46.94z"/>
		<path style="fill:#FFCC00;" d="M334.24,61.88v11.6h-36.29V20.41h35.45v11.6h-22.79v9h20.08v11.17h-20.08v9.7H334.24z"/>
		<path style="fill:#FFCC00;" d="M338.18,68.7l4.19-11.07c4.305,3.281,9.539,5.112,14.95,5.23c5.29,0,7.36-1.74,7.36-4.32
			c0-8.41-25.7-2.27-25.7-22c0-9.48,6.59-17.21,20-17.21c5.8-0.082,11.499,1.526,16.4,4.63l-3.94,11.14
			c-3.716-2.5-8.063-3.897-12.54-4.03c-5.36,0-7.29,2.12-7.29,4.77c0,8.11,25.63,2.05,25.63,21.61c0,9.24-6.58,17.13-20,17.13
			C349.8,74.54,342.44,72.19,338.18,68.7z"/>
		<path style="fill:#FFCC00;" d="M379.95,68.7l4.2-11.07c4.295,3.278,9.519,5.109,14.92,5.23c5.29,0,7.36-1.74,7.36-4.32
			c0-8.41-25.7-2.27-25.7-22c0-9.48,6.58-17.21,20-17.21c5.804-0.084,11.506,1.525,16.41,4.63L413.2,35.1
			c-3.711-2.495-8.051-3.892-12.52-4.03c-5.36,0-7.3,2.12-7.3,4.77c0,8.11,25.64,2.05,25.64,21.61c0,9.24-6.59,17.13-20,17.13
			C391.57,74.54,384.21,72.19,379.95,68.7z"/>
		<path style="fill:#FFCC00;" d="M422.57,46.94c0-15.91,10.65-27.59,25.12-27.59s25.12,11.72,25.12,27.59s-10.66,27.6-25.12,27.6
			S422.57,62.86,422.57,46.94z M459.89,46.94c0-9.17-5.36-15.16-12.2-15.16s-12.21,6-12.21,15.16s5.36,15.13,12.21,15.13
			S459.89,56.12,459.89,46.94z"/>
		<defs>
			<filter id="Adobe_OpacityMaskFilter_1_" filterUnits="userSpaceOnUse" x="194.77" y="19.327" width="278.04" height="55.253">
				<feColorMatrix  type="matrix" values="1 0 0 0 0  0 1 0 0 0  0 0 1 0 0  0 0 0 1 0"/>
			</filter>
		</defs>
		<mask maskUnits="userSpaceOnUse" x="194.77" y="19.327" width="278.04" height="55.253" id="mask-2_1_">
			<g style="filter:url(#Adobe_OpacityMaskFilter_1_);">
				<g transform="translate(-10.68 -7.93)">
					
						<image style="overflow:visible;enable-background:new    ;" width="283" height="60" xlink:href="479F615D.png"  transform="matrix(1 0 0 1 203 25)">
					</image>
				</g>
			</g>
		</mask>
		<g style="mask:url(#mask-2_1_);">
			<g style="opacity:0.57;">
				<path style="fill:#F3BD00;" d="M230.48,63.17h-19.16l-3.55,10.31h-13l20-53.07h12.55l20,53.07h-13.3L230.48,63.17z
					 M226.73,52.07l-5.81-17l-5.81,17H226.73z"/>
				<path style="fill:#F3BD00;" d="M247.97,46.94c0-16.14,10.53-27.59,24.86-27.59c8.33,0,15.05,3.56,19.44,10l-8.14,8.64
					c-2.84-4-6.32-6.22-10.65-6.22c-7.43,0-12.59,6.07-12.59,15.16s5.16,15.14,12.59,15.14c4.33,0,7.81-2.2,10.65-6.22l8.19,8.68
					c-4.39,6.44-11.11,10-19.44,10C258.5,74.54,247.97,63.07,247.97,46.94z"/>
				<path style="fill:#F3BD00;" d="M334.24,61.88v11.6h-36.29V20.41h35.45v11.6h-22.79v9h20.08v11.17h-20.08v9.7H334.24z"/>
				<path style="fill:#F3BD00;" d="M338.18,68.7l4.19-11.07c4.305,3.281,9.539,5.112,14.95,5.23c5.29,0,7.36-1.74,7.36-4.32
					c0-8.41-25.7-2.27-25.7-22c0-9.48,6.59-17.21,20-17.21c5.8-0.082,11.499,1.526,16.4,4.63l-3.94,11.14
					c-3.716-2.5-8.063-3.897-12.54-4.03c-5.36,0-7.29,2.12-7.29,4.77c0,8.11,25.63,2.05,25.63,21.61c0,9.24-6.58,17.13-20,17.13
					C349.8,74.54,342.44,72.19,338.18,68.7z"/>
				<path style="fill:#F3BD00;" d="M379.95,68.7l4.2-11.07c4.295,3.278,9.519,5.109,14.92,5.23c5.29,0,7.36-1.74,7.36-4.32
					c0-8.41-25.7-2.27-25.7-22c0-9.48,6.58-17.21,20-17.21c5.804-0.084,11.506,1.525,16.41,4.63L413.2,35.1
					c-3.711-2.495-8.051-3.892-12.52-4.03c-5.36,0-7.3,2.12-7.3,4.77c0,8.11,25.64,2.05,25.64,21.61c0,9.24-6.59,17.13-20,17.13
					C391.57,74.54,384.21,72.19,379.95,68.7z"/>
				<path style="fill:#F3BD00;" d="M422.57,46.94c0-15.91,10.65-27.59,25.12-27.59s25.12,11.72,25.12,27.59s-10.66,27.6-25.12,27.6
					S422.57,62.86,422.57,46.94z M459.89,46.94c0-9.17-5.36-15.16-12.2-15.16s-12.21,6-12.21,15.16s5.36,15.13,12.21,15.13
					S459.89,56.12,459.89,46.94z"/>
			</g>
		</g>
	</g>
</g>
</svg>
